<?xml version="1.0" encoding="utf-8"?>
<!-- Generator: Adobe Illustrator 28.0.0, SVG Export Plug-In . SVG Version: 6.00 Build 0)  -->
<svg version="1.2" baseProfile="tiny-ps"  xmlns="http://www.w3.org/2000/svg" xmlns:xlink="http://www.w3.org/1999/xlink"
	 x="0px" y="0px" viewBox="0 0 312.5 180" overflow="visible" xml:space="preserve">
<title>Hartlaubs Ltd</title>
<g>
	<g>
		<path fill="#00AAC8" d="M248.37,64.28C179.16,51.81,48.58,15.4,26,73.26C33.85-12.54,162.96,29.86,248.37,64.28z"/>
		<path fill="#001E4B" d="M257.21,70.76C244.45,72.26,4.4,35.85,45.14,149.07C-61.38-17.52,323.97,86.22,250.83,68.77L257.21,70.76z
			"/>
		<path fill="#1368A3" d="M223.83,77.74c-106.52-1.5-162.48,24.94-169.85,64.34C34.35,83.73,127.12,63.78,223.83,77.74z"/>
		<path fill="#001E4B" d="M211.07,130.12c12.27-4.99,100.14-20.45,28.47-109.23C287.15,21.88,314.64,150.07,211.07,130.12z"/>
		<path fill="#1368A3" d="M166.89,79.24c2.13-17.28-21.76,58.85,40.25,57.36c-54-20.95-16.69-69.83-24.05-58.86L166.89,79.24z"/>
		<path fill="#1368A3" d="M212.12,47.81c1.38,0.64,2.95,0.69,4.38,0.2c14.35-4.88,37.41,0.64,38.07,5.84
			c-9.6-13.58-26.63-25.16-43.99-17.74c-4.7,2.01-4.74,8.78-0.09,10.94L212.12,47.81z"/>
	</g>
</g>
<path fill="none" stroke="#1D1D1B" stroke-miterlimit="10" d="M301.5-53.5c0,0,0.45,0,1,0"/>
</svg>
