<?xml version="1.0" encoding="utf-8"?>
<!-- Generator: Adobe Illustrator 28.0.0, SVG Export Plug-In . SVG Version: 6.00 Build 0)  -->
<svg version="1.2" baseProfile="tiny-ps"  xmlns="http://www.w3.org/2000/svg" xmlns:xlink="http://www.w3.org/1999/xlink"
	 x="0px" y="0px" viewBox="0 0 312.5 206" overflow="visible" xml:space="preserve">
<title>Hartlaubs Ltd</title>
<g>
	<g>
		<path fill="#00AAC8" d="M248.37,64.28C179.16,51.81,48.58,15.4,26,73.26C33.85-12.54,162.96,29.86,248.37,64.28z"/>
		<path fill="#001E4B" d="M257.21,70.76C244.45,72.26,4.4,35.85,45.14,149.07C-61.38-17.52,323.97,86.22,250.83,68.77L257.21,70.76z
			"/>
		<path fill="#1368A3" d="M223.83,77.74c-106.52-1.5-162.48,24.94-169.85,64.34C34.35,83.73,127.12,63.78,223.83,77.74z"/>
		<path fill="#001E4B" d="M211.07,130.12c12.27-4.99,100.14-20.45,28.47-109.23C287.15,21.88,314.64,150.07,211.07,130.12z"/>
		<path fill="#1368A3" d="M166.89,79.24c2.13-17.28-21.76,58.85,40.25,57.36c-54-20.95-16.69-69.83-24.05-58.86L166.89,79.24z"/>
		<path fill="#1368A3" d="M212.12,47.81c1.38,0.64,2.95,0.69,4.38,0.2c14.35-4.88,37.41,0.64,38.07,5.84
			c-9.6-13.58-26.63-25.16-43.99-17.74c-4.7,2.01-4.74,8.78-0.09,10.94L212.12,47.81z"/>
	</g>
	<g>
		<path fill="#001E4B" d="M38.19,156.21v7.75h8.89c0.19-1.71-0.5-8.89,0.56-10.24c6.23-6.33,2.69,22.44,3.56,23.79
			c0.43,4.27-4.58,4.3-4.12,0c0,0,0-9.09,0-9.09h-8.89c-0.56,2.32,1.63,12.19-2.08,12.43c-4.07,0.52-1.25-22.55-2.04-24.64
			C33.6,151.95,38.63,151.94,38.19,156.21z"/>
		<path fill="#001E4B" d="M64.94,178.01c-9.03,9.4-18.14-7.83-0.25-10.31c0.38-3.4-2.4-4.79-4.99-3.32
			c-1.46,0.87-1.82,4.91-4.01,2.81c-2.97-6.65,10.14-9.76,12.13-3.59c1.28,4.45-0.07,10.65,1.27,15.2
			C68.61,182.14,65.63,180.7,64.94,178.01z M64.69,170.73c-1.53,0.89-4.61,0.99-5.79,2.35C56.39,180.31,66.2,178.26,64.69,170.73z"
			/>
		<path fill="#001E4B" d="M76.01,173.59c0.08,2.07,0.53,9.74-3.26,6.49c-1.07-1.07-0.31-14.73-0.53-16.3
			c-0.31-4.69,4.04-4.15,3.66-0.26c0.82-5,8.6-3.21,6.26,1.28c-0.72,0.79-0.98,0.71-2.04,0.26
			C75.33,163.34,76.23,170.41,76.01,173.59z"/>
		<path fill="#001E4B" d="M85.25,160.82h0.42c0.32-2.2-1.08-6.77,1.89-7.29c2.93,0.45,1.61,5.15,1.9,7.29
			c4.08-0.78,4.12,4.29,0,3.63c0.2,2.09-0.46,10.35,0.4,12.11c0.85,1.16,2.68-0.72,3.5,0.57c2.01,3.55-4.17,4.7-6.19,2.92
			c-2.75-2.85-1.02-11.84-1.48-15.6C83.09,165.05,82.63,160.76,85.25,160.82z"/>
		<path fill="#001E4B" d="M95.1,177.79c0.78-2.04-1.96-25.28,1.87-24.9c3.89-0.51,1.14,22.95,1.92,24.9
			C99.28,181.72,94.7,181.7,95.1,177.79z"/>
		<path fill="#001E4B" d="M112.37,178.01c-9.03,9.4-18.14-7.83-0.25-10.31c0.38-3.4-2.4-4.79-4.99-3.32
			c-1.46,0.87-1.82,4.91-4.01,2.81c-2.97-6.65,10.14-9.76,12.13-3.59c1.28,4.45-0.07,10.65,1.27,15.2
			C116.04,182.14,113.06,180.7,112.37,178.01z M112.12,170.73c-1.53,0.89-4.61,0.99-5.79,2.35
			C103.82,180.31,113.64,178.26,112.12,170.73z"/>
		<path fill="#001E4B" d="M129.52,178.01v-0.65c-3.2,6.38-11.04,2.96-9.95-4c0.54-1.9-1.94-16.34,3.26-12.23
			c1.29,2.87-0.01,10.24,0.75,13.25c2.08,6.17,6.8,0.13,5.71-4.88c0.2-2.05-1.21-11.87,3.26-8.38c1.05,0.97,0.3,15.34,0.51,16.85
			C133.45,181.66,129.19,181.64,129.52,178.01z"/>
		<path fill="#001E4B" d="M140.34,155.77v7.69c4.89-7.34,12.25,0,11.22,6.95c1.12,6.82-6.53,15.24-11.22,7.06
			c0.61,3.83-3.76,4.77-3.58,0.5c0.18-1.16-0.48-24.06,0.46-24.3C138.63,151.71,140.63,153.73,140.34,155.77z M140.52,170.73
			c0.7,11.81,9.86,4.54,6.81-3.58C145.36,160.84,139.64,165.92,140.52,170.73z"/>
		<path fill="#001E4B" d="M166.79,174.27c0.3,11.89-18.59,5.05-11.42-0.83c0.93,0.01,1.15,0.67,1.53,1.48
			c2.52,6.56,10.7-0.66,2.95-2.64c-7.48-0.85-7.88-11.88,0-11.9c3.19-0.27,7.58,2.7,5.76,6.05c-2.88,2.51-3.73-5.34-7.47-2.26
			C154.76,169.35,167.94,167.8,166.79,174.27z"/>
		<path fill="#001E4B" d="M181.4,156.21v19.68h8.35c2.73-0.14,2.77,4.68,0,4.5c-1.47-0.36-11.04,0.82-11.88-0.79
			c-1.22-0.71-0.34-21.87-0.59-23.39C176.83,151.96,181.84,151.94,181.4,156.21z"/>
		<path fill="#001E4B" d="M196.18,158.04c-2.58,0.01-2.53-4.86,0-4.92C198.68,153.12,198.68,158.02,196.18,158.04z M198.05,163.24
			c-0.65,2.08,1.75,17.78-1.91,17.61c-3.58,0.18-1.25-15.46-1.87-17.46C193.83,159.62,198.34,159.49,198.05,163.24z"/>
		<path fill="#001E4B" d="M214.56,170.99c-0.19,1.62,0.48,7.8-0.54,9.07c-1.62,2.02-3.64-0.13-3.36-2.38
			c-0.26-3.01,0.63-10.1-0.62-12.7c-8.08-4.38-1.35,15.4-6.34,15.87c-3.72,0.19-1.31-15.49-1.96-17.58
			c-0.26-4.01,4.1-3.58,3.61,0.18c1.89-3.78,7.22-4.23,8.75,0c1.84-3.89,7.44-4.15,8.84,0.09c0.88,2.22,0.35,11.44,0.49,14.13
			c0.42,4.07-4.34,4.06-3.93,0c-0.26-2.86,0.67-10.25-0.67-12.71C215.41,162.63,214.3,167.53,214.56,170.99z"/>
		<path fill="#001E4B" d="M229.02,158.04c-2.58,0.01-2.53-4.86,0-4.92C231.52,153.12,231.52,158.02,229.02,158.04z M230.89,163.24
			c-0.65,2.08,1.75,17.78-1.91,17.61c-3.58,0.18-1.25-15.46-1.87-17.46C226.67,159.62,231.18,159.49,230.89,163.24z"/>
		<path fill="#001E4B" d="M235.01,160.82h0.42c0.32-2.2-1.08-6.77,1.89-7.29c2.93,0.45,1.61,5.15,1.9,7.29
			c4.08-0.78,4.11,4.29,0,3.63c0.2,2.09-0.46,10.35,0.4,12.11c0.85,1.16,2.68-0.72,3.5,0.57c2,3.55-4.17,4.7-6.2,2.92
			c-2.75-2.85-1.02-11.84-1.48-15.6C232.86,165.05,232.39,160.76,235.01,160.82z"/>
		<path fill="#001E4B" d="M255.43,171.85h-7.41c-0.32,3.46,2.78,7.54,6.05,4.79c1.09-1.15,3.77-4.73,4.26-1.08
			c-2.44,9.86-15.86,4.53-14.18-4.98c-0.71-6.25,5.16-13.29,11.23-8.99C258.25,163.57,260.96,172.08,255.43,171.85z M248.02,168.99
			h6.87C255.04,162.24,247.97,162.3,248.02,168.99z"/>
		<path fill="#001E4B" d="M272.12,177.98v-0.5c-4.85,8.1-12.29-0.22-11.25-7.06c-0.98-7.35,6.46-14.14,11.25-6.95
			c0.39-1.98-1.59-13.41,3.12-9.84c0.91-0.27,0.3,23.57,0.47,24.35C276.07,181.68,271.77,181.64,272.12,177.98z M264.67,170.58
			c-0.42,8.31,7.68,8.37,7.24,0C272.24,162.21,264.27,162.17,264.67,170.58z"/>
	</g>
</g>
<path fill="none" stroke="#1D1D1B" stroke-miterlimit="10" d="M301.5-53.5c0,0,0.45,0,1,0"/>
</svg>
